# xmcd
#
# Track frame offsets:
#	150
#	20183
#	33690
#	53030
#	70619
#	88244
#	104725
#	126167
#	144938
#	162533
#	177072
#	195489
#	213002
#	227827
#	244993
#	262156
#	279471
#	297972
#	314803
#	332773
# Disc length: 4672 seconds
# Revision: 2
# Processed by: cddbd v1.5.2PL0 Copyright (c) Steve Scherf et al.
#
# Submitted via: libkcddb 0.21
#
DISCID=3a123e14
DTITLE=PromoOnly - Contemp. Christian May 2005
DYEAR=2005
DGENRE=Christian Rock
TTITLE0=Fusebox F./Donnie - Look What You've Done
TTITLE1=Kids in The Way - Apparitions of Melody
TTITLE2=Lisbeth Scott - Surrender
TTITLE3=Phillip, Craig and Dean - Friend of God
TTITLE4=WaterMark - Knees to the Earth
TTITLE5=lojique - Pike Place
TTITLE6=Amy Grant - Abide with Me
TTITLE7=Farewell Jane - Servant
TTITLE8=Circleslide - Walking on the Waves
TTITLE9=LA Symphony F./ Paul Wright - Gonna Be Alright
TTITLE10=Nicole Nordeman - Brave
TTITLE11=Fernando Ortega - Mildred Madalyn Johnson
TTITLE12=KJ 52 F/ Jon Micah - Are you Real?
TTITLE13=Paul Colman - The One Thing
TTITLE14=Elias f./Kaboose - Last Night
TTITLE15=Kara Williamson - Where you Are
TTITLE16=Seventh Day Slumber - Caroline
TTITLE17=Ricardo - I call your Name
TTITLE18=Joy Williams - Hide
TTITLE19=Michael Olson - I believe in Jesus
EXTD=
EXTT0=
EXTT1=
EXTT2=
EXTT3=
EXTT4=
EXTT5=
EXTT6=
EXTT7=
EXTT8=
EXTT9=
EXTT10=
EXTT11=
EXTT12=
EXTT13=
EXTT14=
EXTT15=
EXTT16=
EXTT17=
EXTT18=
EXTT19=
PLAYORDER=
